<?xml version="1.0" standalone="no"?>
<!DOCTYPE svg PUBLIC "-//W3C//DTD SVG 1.0//EN" "http://www.w3.org/TR/2001/REC-SVG-20010904/DTD/svg10.dtd">
<svg xmlns="http://www.w3.org/2000/svg" xmlns:xlink="http://www.w3.org/1999/xlink" id="body_1" width="499" height="499">

<g transform="matrix(0.8009631 0 0 0.8009631 0 0)">
	<g transform="matrix(0.1 0 -0 -0.1 0 623)">
        <path d="M0 3115L0 0L3115 0L6230 0L6230 3115L6230 6230L3115 6230L0 6230L0 3115zM820 4060L820 3880L640 3880L460 3880L460 4060L460 4240L640 4240L820 4240L820 4060zM330 4060L330 3920L190 3920L50 3920L50 4060L50 4200L190 4200L330 4200L330 4060zM1776 4111C 1834 4084 1885 4036 1912 3982C 1931 3942 1935 3914 1940 3792L1940 3792L1945 3650L1413 3650C 915 3650 881 3649 876 3633C 873 3623 828 3415 775 3170C 722 2925 677 2717 674 2708C 669 2691 666 2691 631 2710C 585 2733 534 2790 509 2844C 492 2881 490 2914 490 3163L490 3163L490 3440L535 3440L580 3440L580 3620L580 3800L740 3800L900 3800L900 3965L900 4130L1318 4130C 1702 4130 1738 4128 1776 4111zM498 3663L501 3520L355 3520L210 3520L210 3658C 210 3734 213 3800 217 3804C 221 3807 285 3809 359 3808L359 3808L495 3805L498 3663zM5640 3637C 5640 3624 5544 3178 5534 3148C 5530 3134 5534 3130 5554 3130C 5572 3130 5623 3165 5720 3245L5720 3245L5861 3360L6033 3360C 6137 3360 6200 3356 6195 3351C 6189 3346 6097 3274 5990 3190C 5883 3107 5794 3035 5792 3031C 5790 3024 5939 2840 6078 2678C 6092 2661 6084 2660 5924 2660L5924 2660L5755 2660L5646 2800C 5561 2910 5533 2940 5514 2940C 5498 2940 5489 2933 5485 2918C 5470 2852 5430 2670 5430 2666C 5430 2663 5372 2660 5300 2660C 5198 2660 5170 2663 5170 2673C 5170 2681 5217 2902 5275 3165C 5333 3428 5380 3645 5380 3647C 5380 3649 5439 3650 5510 3650C 5608 3650 5640 3647 5640 3637zM3340 3633C 3340 3599 3294 3422 3281 3409C 3272 3400 3164 3331 3040 3255C 2650 3016 2480 2908 2480 2899C 2480 2894 2635 2890 2835 2890C 3030 2890 3190 2887 3190 2883C 3190 2878 3180 2829 3168 2773L3168 2773L3147 2670L2568 2670C 2021 2670 1989 2671 1994 2688C 1997 2697 2009 2748 2020 2800C 2032 2852 2042 2895 2043 2896C 2049 2901 2624 3259 2727 3321C 2795 3362 2852 3401 2855 3408C 2858 3417 2787 3420 2520 3420C 2333 3420 2180 3423 2180 3428C 2180 3432 2190 3481 2202 3538L2202 3538L2223 3640L2782 3640C 3089 3640 3340 3637 3340 3633zM3800 3508C 3799 3501 3793 3468 3785 3435C 3777 3402 3770 3372 3770 3368C 3770 3363 3894 3360 4045 3360L4045 3360L4320 3360L4276 3306C 4252 3276 4224 3234 4214 3211L4214 3211L4196 3170L3961 3168L3725 3165L3698 3045C 3655 2848 3660 2834 3771 2842C 3841 2847 3866 2866 3877 2924L3877 2924L3886 2965L4004 2968C 4105 2970 4122 2968 4117 2956C 4114 2948 4108 2924 4104 2903C 4079 2770 3994 2687 3853 2660C 3816 2652 3739 2649 3662 2652C 3549 2655 3527 2659 3484 2681C 3387 2731 3377 2788 3428 3017C 3446 3095 3460 3161 3460 3164C 3460 3167 3373 3171 3268 3172L3268 3172L3075 3175L3225 3268L3374 3360L3441 3360L3507 3360L3514 3403C 3518 3426 3525 3462 3531 3483L3531 3483L3541 3520L3670 3520C 3768 3520 3800 3517 3800 3508zM1924 2857C 1906 2803 1853 2737 1808 2714C 1793 2706 1780 2701 1780 2703C 1780 2705 1789 2746 1800 2796C 1811 2845 1820 2888 1820 2893C 1820 2897 1642 2900 1424 2900L1424 2900L1028 2900L1034 2923C 1037 2935 1044 2969 1050 2998L1050 2998L1062 3050L1429 3050L1797 3050L1814 3133C 1823 3178 1833 3225 1836 3238L1836 3238L1842 3260L1476 3260C 1275 3260 1110 3263 1110 3268C 1110 3274 1121 3324 1135 3388L1135 3388L1140 3410L1529 3410L1918 3410L1927 3463C 1932 3499 1936 3419 1938 3211C 1940 2950 1938 2899 1924 2857zM4959 3360C 5040 3349 5102 3320 5134 3277C 5163 3238 5166 3146 5143 3040L5143 3040L5124 2955L4807 2952L4490 2950L4484 2926C 4481 2913 4480 2890 4482 2874C 4487 2828 4525 2816 4665 2816C 4794 2817 4842 2830 4855 2870C 4861 2889 4870 2890 4986 2890L4986 2890L5110 2890L5104 2863C 5083 2778 5026 2716 4933 2679C 4878 2657 4863 2655 4625 2655C 4382 2655 4374 2656 4327 2679C 4224 2729 4200 2824 4240 3011C 4267 3138 4296 3206 4350 3264C 4399 3317 4454 3346 4530 3359C 4604 3371 4868 3372 4959 3360zM758 2369C 761 2355 752 2353 690 2358C 630 2362 620 2360 620 2346C 620 2333 632 2330 685 2330C 745 2330 751 2328 762 2305C 770 2286 770 2274 762 2255C 751 2232 746 2230 678 2230C 599 2230 574 2239 583 2264C 590 2282 610 2286 610 2270C 610 2264 637 2260 670 2260C 723 2260 730 2262 730 2280C 730 2297 722 2299 663 2302C 597 2305 595 2306 592 2333C 586 2387 593 2391 677 2388C 739 2386 755 2382 758 2369zM870 2309C 870 2238 868 2229 853 2232C 838 2235 835 2248 832 2313C 829 2385 831 2390 850 2390C 868 2390 870 2384 870 2309zM1016 2343L1054 2297L1094 2344C 1152 2410 1160 2406 1160 2310C 1160 2246 1157 2230 1145 2230C 1134 2230 1130 2243 1130 2283L1130 2283L1129 2335L1091 2292L1053 2248L1017 2291L980 2334L980 2282C 980 2242 976 2230 965 2230C 953 2230 950 2246 950 2310C 950 2406 960 2411 1016 2343zM1414 2374C 1426 2343 1420 2311 1401 2300C 1390 2295 1356 2290 1326 2290C 1270 2290 1270 2290 1270 2260C 1270 2240 1265 2230 1255 2230C 1243 2230 1240 2246 1240 2310L1240 2310L1240 2390L1324 2390C 1391 2390 1409 2387 1414 2374zM1510 2325L1510 2260L1575 2260C 1627 2260 1640 2257 1640 2245C 1640 2232 1626 2230 1558 2232L1558 2232L1475 2235L1472 2313C 1469 2385 1471 2390 1490 2390C 1508 2390 1510 2384 1510 2325zM1853 2375C 1854 2369 1826 2364 1788 2362C 1736 2360 1720 2356 1720 2345C 1720 2334 1732 2330 1760 2330C 1789 2330 1800 2326 1800 2315C 1800 2304 1789 2300 1760 2300C 1727 2300 1720 2297 1720 2280C 1720 2262 1727 2260 1790 2260C 1846 2260 1860 2257 1860 2245C 1860 2233 1843 2230 1770 2230L1770 2230L1680 2230L1680 2310L1680 2391L1765 2388C 1812 2386 1851 2381 1853 2375zM2110 2365C 2123 2351 2139 2340 2145 2340C 2151 2340 2167 2351 2180 2365C 2193 2379 2213 2390 2224 2390C 2241 2390 2237 2383 2202 2347C 2168 2312 2160 2297 2160 2267C 2160 2237 2156 2230 2140 2230C 2124 2230 2120 2237 2120 2267C 2120 2297 2112 2312 2078 2347C 2037 2389 2037 2390 2061 2390C 2075 2390 2097 2379 2110 2365zM2458 2378C 2455 2370 2429 2364 2387 2362C 2336 2360 2320 2356 2320 2345C 2320 2334 2332 2330 2360 2330C 2389 2330 2400 2326 2400 2315C 2400 2304 2389 2300 2359 2300C 2326 2300 2319 2297 2322 2283C 2325 2268 2338 2264 2393 2262C 2444 2260 2460 2256 2460 2245C 2460 2233 2443 2230 2375 2230L2375 2230L2290 2230L2290 2310L2290 2390L2376 2390C 2440 2390 2461 2387 2458 2378zM2690 2375C 2690 2364 2679 2360 2650 2360L2650 2360L2610 2360L2610 2295C 2610 2237 2608 2230 2590 2230C 2572 2230 2570 2237 2570 2295L2570 2295L2570 2360L2535 2360C 2511 2360 2500 2365 2500 2375C 2500 2387 2517 2390 2595 2390C 2673 2390 2690 2387 2690 2375zM3068 2362C 3070 2349 3066 2333 3060 2325C 3053 2316 3052 2310 3060 2305C 3074 2297 3073 2257 3058 2242C 3051 2235 3015 2230 2968 2230L2968 2230L2890 2230L2890 2310L2890 2391L2978 2388C 3060 2385 3065 2384 3068 2362zM3310 2375C 3310 2364 3294 2360 3243 2358C 3170 2355 3150 2337 3213 2332C 3262 2328 3265 2300 3216 2300C 3185 2300 3163 2281 3177 2266C 3181 2263 3212 2260 3247 2260C 3296 2260 3310 2257 3310 2245C 3310 2233 3294 2230 3225 2230L3225 2230L3140 2230L3140 2310L3140 2390L3225 2390C 3293 2390 3310 2387 3310 2375zM3548 2369C 3550 2355 3541 2354 3475 2358C 3411 2362 3400 2360 3400 2347C 3400 2334 3414 2330 3473 2328L3473 2328L3545 2325L3545 2280L3545 2235L3464 2232C 3402 2230 3380 2233 3371 2244C 3364 2252 3361 2264 3365 2270C 3373 2283 3400 2283 3400 2270C 3400 2264 3427 2260 3461 2260C 3513 2260 3521 2262 3518 2278C 3515 2292 3501 2296 3445 2300C 3377 2305 3375 2306 3372 2333C 3366 2387 3372 2391 3462 2388C 3529 2386 3545 2382 3548 2369zM3790 2375C 3790 2364 3779 2360 3750 2360L3750 2360L3710 2360L3710 2295C 3710 2244 3707 2230 3695 2230C 3683 2230 3680 2244 3680 2295L3680 2295L3680 2360L3640 2360C 3611 2360 3600 2364 3600 2375C 3600 2387 3617 2390 3695 2390C 3773 2390 3790 2387 3790 2375zM4168 2369C 4171 2355 4162 2353 4100 2358C 4041 2362 4030 2360 4030 2347C 4030 2334 4044 2330 4098 2328L4098 2328L4165 2325L4165 2280L4165 2235L4082 2232C 4014 2230 3999 2232 3994 2245C 3990 2254 3993 2267 4000 2273C 4010 2282 4014 2282 4017 2273C 4020 2264 4043 2260 4081 2260C 4133 2260 4140 2262 4140 2280C 4140 2298 4133 2300 4071 2300C 4009 2300 4001 2302 3995 2321C 3991 2332 3991 2353 3994 2366C 4000 2390 4003 2391 4083 2388C 4149 2386 4165 2382 4168 2369zM4435 2310L4435 2235L4340 2235L4245 2235L4242 2299C 4238 2393 4235 2391 4342 2388L4342 2388L4435 2385L4435 2310zM4550 2325L4550 2260L4615 2260C 4666 2260 4680 2257 4680 2245C 4680 2233 4664 2230 4595 2230L4595 2230L4510 2230L4510 2310C 4510 2383 4512 2390 4530 2390C 4548 2390 4550 2383 4550 2325zM4770 2325L4770 2260L4825 2260L4880 2260L4880 2325C 4880 2383 4882 2390 4900 2390C 4918 2390 4920 2383 4920 2321C 4920 2274 4916 2249 4906 2241C 4897 2233 4863 2230 4813 2232L4813 2232L4735 2235L4732 2313C 4729 2385 4731 2390 4750 2390C 4768 2390 4770 2384 4770 2325zM5160 2375C 5160 2364 5149 2360 5120 2360L5120 2360L5080 2360L5080 2295C 5080 2244 5077 2230 5065 2230C 5053 2230 5050 2244 5050 2295L5050 2295L5050 2360L5010 2360C 4981 2360 4970 2364 4970 2375C 4970 2387 4987 2390 5065 2390C 5143 2390 5160 2387 5160 2375zM5250 2310C 5250 2237 5248 2230 5230 2230C 5212 2230 5210 2237 5210 2310C 5210 2383 5212 2390 5230 2390C 5248 2390 5250 2383 5250 2310zM5524 2374C 5535 2346 5530 2254 5518 2242C 5511 2235 5475 2230 5425 2230C 5375 2230 5339 2235 5332 2242C 5319 2255 5315 2372 5327 2383C 5330 2387 5375 2390 5426 2390C 5501 2390 5519 2387 5524 2374zM5687 2340C 5721 2313 5751 2290 5754 2290C 5757 2290 5760 2313 5760 2340C 5760 2378 5764 2390 5775 2390C 5787 2390 5790 2374 5790 2310C 5790 2258 5786 2230 5779 2230C 5773 2230 5740 2253 5705 2280C 5670 2308 5639 2330 5636 2330C 5633 2330 5630 2308 5630 2280C 5630 2242 5626 2230 5615 2230C 5603 2230 5600 2246 5600 2310C 5600 2368 5604 2390 5613 2390C 5620 2390 5653 2368 5687 2340zM6040 2386C 6040 2384 6043 2375 6046 2367C 6051 2354 6041 2352 5976 2357C 5910 2362 5900 2361 5900 2346C 5900 2333 5911 2330 5963 2330C 6032 2330 6050 2320 6050 2280C 6050 2239 6033 2230 5954 2230C 5902 2230 5879 2234 5870 2245C 5852 2266 5873 2291 5892 2272C 5899 2265 5928 2260 5957 2260C 6003 2260 6010 2263 6010 2280C 6010 2297 6002 2299 5943 2302C 5877 2305 5875 2306 5872 2333C 5866 2386 5873 2390 5960 2390C 6004 2390 6040 2388 6040 2386z" stroke="none" fill="#000000" fill-rule="nonzero" />
        <path d="M4593 3193C 4580 3191 4561 3177 4550 3163C 4510 3111 4514 3110 4714 3110C 4872 3110 4899 3112 4904 3126C 4912 3148 4893 3179 4864 3190C 4839 3200 4637 3202 4593 3193z" stroke="none" fill="#000000" fill-rule="nonzero" />
        <path d="M1272 2343C 1274 2329 1287 2324 1328 2322C 1375 2319 1380 2321 1380 2339C 1380 2358 1374 2360 1324 2360C 1277 2360 1269 2357 1272 2343z" stroke="none" fill="#000000" fill-rule="nonzero" />
        <path d="M2930 2351C 2930 2333 2936 2330 2981 2330C 3024 2330 3031 2333 3028 2348C 3026 2361 3013 2366 2977 2368C 2935 2371 2930 2369 2930 2351z" stroke="none" fill="#000000" fill-rule="nonzero" />
        <path d="M2930 2280C 2930 2263 2937 2260 2980 2260C 3023 2260 3030 2263 3030 2280C 3030 2297 3023 2300 2980 2300C 2937 2300 2930 2297 2930 2280z" stroke="none" fill="#000000" fill-rule="nonzero" />
        <path d="M4278 2314C 4274 2260 4277 2258 4351 2262L4351 2262L4405 2265L4408 2313L4411 2360L4347 2360L4282 2360L4278 2314z" stroke="none" fill="#000000" fill-rule="nonzero" />
        <path d="M5360 2310L5360 2260L5425 2260L5490 2260L5490 2310L5490 2360L5425 2360L5360 2360L5360 2310z" stroke="none" fill="#000000" fill-rule="nonzero" />
	</g>
</g>
</svg>